<?xml version="1.0" encoding="UTF-8" standalone="no"?>
<svg
   id="Layer_1"
   data-name="Layer 1"
   viewBox="0 0 999.99999 350.00001"
   version="1.1"
   xml:space="preserve"
   width="1000"
   height="350"
   sodipodi:docname="StableHLO_Landing_DarkBG.svg"
   inkscape:version="1.3.2 (091e20e, 2023-11-25)"
   xmlns:inkscape="http://www.inkscape.org/namespaces/inkscape"
   xmlns:sodipodi="http://sodipodi.sourceforge.net/DTD/sodipodi-0.dtd"
   xmlns:xlink="http://www.w3.org/1999/xlink"
   xmlns="http://www.w3.org/2000/svg"
   xmlns:svg="http://www.w3.org/2000/svg"><sodipodi:namedview
   id="namedview1"
   pagecolor="#000000"
   bordercolor="#000000"
   borderopacity="0.25"
   inkscape:showpageshadow="2"
   inkscape:pageopacity="0.0"
   inkscape:pagecheckerboard="0"
   inkscape:deskcolor="#d1d1d1"
   showguides="true"
   showgrid="true"
   inkscape:zoom="2.2323559"
   inkscape:cx="782.80528"
   inkscape:cy="123.6362"
   inkscape:window-width="1712"
   inkscape:window-height="613"
   inkscape:window-x="0"
   inkscape:window-y="38"
   inkscape:window-maximized="0"
   inkscape:current-layer="Layer_1"><sodipodi:guide
     position="450.98375,88.52928"
     orientation="1,0"
     id="guide1"
     inkscape:locked="false" /><sodipodi:guide
     position="75.607529,73.007063"
     orientation="1,0"
     id="guide2"
     inkscape:locked="false" /><sodipodi:guide
     position="936.69327,24.002182"
     orientation="1,0"
     id="guide3"
     inkscape:locked="false" /><inkscape:grid
     id="grid3"
     units="px"
     originx="0"
     originy="0"
     spacingx="100"
     spacingy="100"
     empcolor="#0099e5"
     empopacity="0.30196078"
     color="#0099e5"
     opacity="0.14902"
     empspacing="5"
     dotted="false"
     gridanglex="30"
     gridanglez="30"
     visible="true" /></sodipodi:namedview>
  <defs
   id="defs2">
    <linearGradient
   id="linear-gradient"
   x1="-348.29001"
   y1="-1465.28"
   x2="-323.32001"
   y2="-1465.28"
   gradientTransform="matrix(1,0,0,-1,564,-1236.37)"
   gradientUnits="userSpaceOnUse">
      <stop
   offset="0"
   stop-color="#ff6f00"
   id="stop1" />
      <stop
   offset="1"
   stop-color="#ffa800"
   id="stop2" />
    </linearGradient>
    <linearGradient
   id="linear-gradient-2-7-4-4-9"
   x1="-348.42999"
   x2="-323.45999"
   xlink:href="#linear-gradient" />
    <linearGradient
   xlink:href="#linear-gradient"
   id="linearGradient4"
   gradientUnits="userSpaceOnUse"
   gradientTransform="matrix(1,0,0,-1,564,-1236.37)"
   x1="-348.29001"
   y1="-1465.28"
   x2="-323.32001"
   y2="-1465.28" />
    <clipPath
   id="clippath">
      <path
   class="cls-11"
   id="polygon1"
   d="m 231.81,227.21 v -2.67 l 6.11,3.57 v -5.29 l -10.18,-5.79 v 23.8 l 4.07,-2.36 v -6.69 l 3.08,1.76 -0.05,-4.57 z" />
    </clipPath>
    <clipPath
   id="clippath-1">
      <path
   class="cls-11"
   id="polygon2"
   d="m 226.83,217.03 v 23.8 l -4.07,-2.36 v -13.93 l -6.1,3.57 v -5.29 z" />
    </clipPath>
    <style
   id="style1">
      .cls-1{fill:#ea80fc}.cls-1,.cls-3,.cls-4,.cls-5,.cls-6,.cls-8,.cls-9{stroke:#dce0df;stroke-linejoin:round;stroke-width:.13px}.cls-3{fill:#5e97f6}.cls-4{fill:#26a69a}.cls-5{fill:#2a56c6}.cls-6{fill:#9c27b0}.cls-8{fill:#00695c}.cls-9{fill:#00796b}.cls-11,.cls-15,.cls-17,.cls-18{stroke-width:0}.cls-11,.cls-20,.cls-21{fill:none}.cls-20,.cls-21{stroke:#fff;stroke-miterlimit:10}.cls-20{stroke-width:.65px}.cls-21{stroke-width:.54px}.cls-15{fill:#6fb6e0}.cls-17{fill:#fff}.cls-18{fill:#ee4c2c}
   
#g1 {
  opacity: 1;
  animation: fade-out 10s ease-in-out forwards infinite; 
}
#g2 {
  opacity: 2;
  animation: fade-in 10s ease-in-out forwards infinite; 
}

@keyframes fade-in {
  0% {
    opacity: 0; 
  }
  25% {
      opacity: 0;
  }
  35% {
      opacity: 1;
  }
  75% {
      opacity: 1;
  }
  80% {
      opacity: 0;
  }
  100% {
    opacity: 0;
  }
}

@keyframes fade-out {
  0% {
    opacity: 1; 
  }
  25% {
      opacity: 1;
  }
  35% {
      opacity: 0;
  }
  75% {
      opacity: 0;
  }
  85% {
      opacity: 1;
  }
  100% {
    opacity: 1;
  }
}
    </style>
  </defs>
  <rect
   class="cls-20"
   x="104.325"
   y="48.160999"
   width="194.16"
   height="62.799999"
   rx="11.07"
   ry="11.07"
   id="rect2" />
  <g
   id="Layer_2"
   data-name="Layer 2"
   transform="translate(-79.625,-149.369)">
    <g
   id="Layer_1-2"
   data-name="Layer 1-2">
      <path
   class="cls-3"
   id="polygon3"
   d="m 260.5,329.48 3.17,-5.48 h -6.33 l -3.17,5.48 z" />
      <path
   class="cls-3"
   id="polygon4"
   d="m 260.5,329.48 -3.16,5.48 h -6.33 l 3.16,-5.48 z" />
      <path
   class="cls-3"
   id="polygon5"
   d="m 257.34,334.96 h 6.33 l 3.16,-5.48 h -6.33 z" />
      <path
   class="cls-3"
   id="polygon6"
   d="m 263.67,334.96 h 6.32 l 3.17,-5.48 h -6.33 z" />
      <path
   class="cls-3"
   id="polygon7"
   d="m 273.16,329.48 3.16,-5.48 h -6.33 l -3.16,5.48 z" />
      <path
   class="cls-3"
   id="polygon8"
   d="m 276.32,324 3.17,-5.48 h -6.33 l -3.17,5.48 z" />
      <path
   class="cls-3"
   id="polygon9"
   d="m 279.49,318.52 3.16,-5.48 h -6.33 l -3.16,5.48 z" />
      <path
   class="cls-3"
   id="polygon10"
   d="m 282.65,313.04 3.17,-5.48 h -6.33 l -3.17,5.48 z" />
      <path
   class="cls-5"
   id="polygon11"
   d="m 260.5,340.44 -3.16,-5.48 h -6.33 l 3.16,5.48 z" />
      <path
   class="cls-5"
   id="polygon12"
   d="m 257.34,334.96 h 6.33 l 3.16,5.48 h -6.33 z" />
      <path
   class="cls-5"
   id="polygon13"
   d="m 263.67,334.96 h 6.32 l 3.17,5.48 h -6.33 z" />
      <path
   class="cls-9"
   id="polygon14"
   d="m 269.99,334.96 3.17,5.48 3.16,-5.48 -3.16,-5.48 z" />
      <path
   class="cls-9"
   id="polygon15"
   d="m 282.65,324 -3.16,-5.48 -3.17,5.48 z" />
      <path
   class="cls-9"
   id="polygon16"
   d="m 282.65,324 3.17,-5.48 -3.17,-5.48 -3.16,5.48 z" />
      <path
   id="polygon17"
   style="fill:#3367d6;stroke:#dce0df;stroke-width:0.13px;stroke-linejoin:round"
   d="m 266.83,329.48 -3.16,-5.48 -3.17,5.48 z" />
      <path
   class="cls-4"
   id="polygon18"
   d="m 273.16,329.48 h 6.33 l 3.16,-5.48 h -6.33 z" />
      <path
   class="cls-4"
   id="polygon19"
   d="m 279.49,329.48 h 6.33 l 3.16,-5.48 h -6.33 z" />
      <path
   class="cls-6"
   id="polygon20"
   d="m 288.98,313.04 3.17,5.48 3.16,-5.48 -3.16,-5.48 z" />
      <path
   class="cls-6"
   id="polygon21"
   d="m 292.15,318.52 3.16,5.48 3.17,-5.48 -3.17,-5.48 z" />
      <path
   class="cls-6"
   id="polygon22"
   d="m 295.31,324 3.17,5.48 3.16,-5.48 -3.16,-5.48 z" />
      <path
   class="cls-6"
   id="polygon23"
   d="m 298.48,329.48 3.16,5.48 3.17,-5.48 -3.17,-5.48 z" />
      <path
   class="cls-6"
   id="polygon24"
   d="m 301.64,334.96 3.17,5.48 3.16,-5.48 -3.16,-5.48 z" />
      <path
   class="cls-6"
   id="polygon25"
   d="m 304.81,318.52 3.16,-5.48 -3.16,-5.48 -3.17,5.48 z" />
      <path
   class="cls-6"
   id="polygon26"
   d="m 304.81,318.52 -3.17,5.48 -3.16,-5.48 3.16,-5.48 z" />
      <path
   class="cls-6"
   id="polygon27"
   d="m 295.31,334.96 3.17,-5.48 -3.17,-5.48 -3.16,5.48 z" />
      <path
   class="cls-6"
   id="polygon28"
   d="m 292.15,329.48 3.16,5.48 -3.16,5.48 -3.17,-5.48 z" />
      <path
   id="polygon29"
   style="fill:#6a1b9a;stroke:#dce0df;stroke-width:0.13px;stroke-linejoin:round"
   d="m 288.98,334.96 3.17,5.48 h -6.33 l -3.17,-5.48 z" />
      <path
   class="cls-8"
   id="polygon30"
   d="m 276.32,334.96 h 6.33 l -3.16,-5.48 h -6.33 z" />
      <path
   class="cls-8"
   id="polygon31"
   d="m 285.82,329.48 h -6.33 l 3.16,5.48 z" />
      <path
   class="cls-8"
   id="polygon32"
   d="m 295.31,324 -3.16,-5.48 h -6.33 l 3.16,5.48 z" />
      <path
   class="cls-8"
   id="polygon33"
   d="m 285.82,318.52 h 6.33 l -3.17,-5.48 h -6.33 z" />
      <path
   class="cls-8"
   id="polygon34"
   d="m 295.31,334.96 3.17,5.48 h 6.33 l -3.17,-5.48 z" />
      <path
   class="cls-8"
   id="polygon35"
   d="m 298.48,329.48 -3.17,5.48 h 6.33 z" />
      <path
   class="cls-1"
   id="polygon36"
   d="m 282.65,313.04 h 6.33 l 3.17,-5.48 h -6.33 z" />
      <path
   class="cls-1"
   id="polygon37"
   d="m 282.65,334.96 h 6.33 l 3.17,-5.48 h -6.33 z" />
      <path
   class="cls-1"
   id="polygon38"
   d="m 285.82,329.48 h 6.33 l 3.16,-5.48 h -6.33 z" />
      <path
   class="cls-1"
   id="polygon39"
   d="m 295.31,313.04 h 6.33 l 3.17,-5.48 h -6.33 z" />
      <path
   class="cls-1"
   id="polygon40"
   d="m 298.48,318.52 -3.17,-5.48 h 6.33 z" />
    </g>
  </g>
  <rect
   class="cls-20"
   x="104.325"
   y="143.231"
   width="194.16"
   height="62.799999"
   rx="11.07"
   ry="11.07"
   id="rect44" />
  <path
   class="cls-20"
   d="m 287.405,301.101 h -172.01 c -6.12,0 -11.07,-4.96 -11.07,-11.07 v -40.66 c 0,-6.12 4.96,-11.07 11.07,-11.07 h 172.01 c 6.12,0 11.07,4.96 11.07,11.07 v 40.66 c 0,6.12 -4.96,11.07 -11.07,11.07 z"
   id="path44" />
  <g
   id="g53"
   transform="translate(-79.625,-149.369)">
    <g
   id="g45">
      <path
   class="cls-18"
   d="m 237.41,412.75 -1.59,1.59 c 2.6,2.6 2.6,6.79 0,9.34 -2.6,2.6 -6.79,2.6 -9.34,0 -2.6,-2.6 -2.6,-6.79 0,-9.34 l 4.12,-4.12 0.58,-0.58 v -3.11 l -6.21,6.21 a 8.83,8.83 0 0 0 0,12.52 c 3.47,3.47 9.05,3.47 12.45,0 3.47,-3.49 3.47,-9.05 0,-12.52 z"
   id="path45" />
      <circle
   class="cls-18"
   cx="234.3"
   cy="411.20999"
   r="1.16"
   id="circle45" />
    </g>
    <g
   id="g52">
      <path
   class="cls-17"
   d="m 253.47,420.69 h -2.67 v 6.86 h -2.02 v -19.53 h 4.91 c 5.13,0 7.58,2.53 7.58,6.07 0.07,4.36 -2.96,6.6 -7.8,6.6 m 0.22,-10.72 h -2.82 v 8.98 l 2.75,-0.07 c 3.68,-0.07 5.71,-1.52 5.71,-4.55 0,-2.84 -2.02,-4.36 -5.63,-4.36 z"
   id="path46" />
      <path
   class="cls-17"
   d="m 270.32,427.48 -1.16,3.11 c -1.3,3.47 -2.67,4.48 -4.62,4.48 -1.08,0 -1.88,-0.29 -2.75,-0.65 l 0.58,-1.81 c 0.65,0.36 1.37,0.65 2.17,0.65 1.08,0 1.88,-0.58 2.96,-3.32 l 0.94,-2.53 -5.56,-14.11 h 2.09 l 4.48,11.8 4.41,-11.8 h 2.02 z"
   id="path47" />
      <path
   class="cls-17"
   d="m 282.48,409.98 v 17.65 h -2.02 v -17.65 h -6.86 v -1.88 h 15.7 v 1.88 h -6.81 z"
   id="path48" />
      <path
   class="cls-17"
   d="m 295.01,427.99 c -3.97,0 -6.86,-2.96 -6.86,-7.51 0,-4.55 3.03,-7.58 7.08,-7.58 4.05,0 6.86,2.96 6.86,7.51 -0.07,4.55 -3.11,7.58 -7.08,7.58 m 0.07,-13.29 c -3.03,0 -4.98,2.38 -4.98,5.78 0,3.4 2.02,5.85 5.06,5.85 3.04,0 4.98,-2.38 4.98,-5.78 0,-3.4 -2.02,-5.85 -5.06,-5.85"
   id="path49" />
      <path
   class="cls-17"
   d="m 306.92,427.63 h -1.95 V 413.3 l 1.95,-0.43 v 3.03 c 0.94,-1.81 2.31,-3.03 4.19,-3.03 0.94,0 1.81,0.29 2.53,0.65 l -0.51,1.81 c -0.65,-0.36 -1.37,-0.65 -2.17,-0.65 -1.52,0 -2.89,1.16 -4.05,3.68 v 9.27 z"
   id="path50" />
      <path
   class="cls-17"
   d="m 321.25,427.99 c -4.33,0 -7.01,-3.11 -7.01,-7.51 0,-4.4 2.96,-7.58 7.01,-7.58 1.73,0 3.25,0.43 4.48,1.23 l -0.51,1.73 c -1.08,-0.72 -2.46,-1.16 -3.97,-1.16 -3.11,0 -4.98,2.31 -4.98,5.71 0,3.4 2.02,5.78 5.06,5.78 1.44,0 2.89,-0.43 3.97,-1.16 l 0.43,1.81 c -1.3,0.72 -2.82,1.16 -4.48,1.16 z"
   id="path51" />
      <path
   class="cls-17"
   d="m 337.67,427.63 v -9.27 c 0,-2.53 -1.01,-3.61 -3.03,-3.61 -1.66,0 -3.25,0.87 -4.41,2.02 v 10.86 h -1.95 v -21.05 l 1.95,-0.43 v 9.05 c 1.52,-1.52 3.4,-2.24 4.98,-2.24 2.75,0 4.48,1.81 4.48,4.91 v 9.78 h -2.02 z"
   id="path52" />
    </g>
  </g>
  <g
   id="g1"
   transform="translate(-79.625,-149.369)">
    <rect
   class="cls-20"
   x="773.89001"
   y="197.53"
   width="194.16"
   height="62.799999"
   rx="11.07"
   ry="11.07"
   id="rect53" />
    <rect
   class="cls-20"
   x="773.89001"
   y="292.60001"
   width="194.16"
   height="62.799999"
   rx="11.07"
   ry="11.07"
   id="rect54" />
    <rect
   class="cls-20"
   x="773.89001"
   y="387.67001"
   width="194.16"
   height="62.799999"
   rx="11.07"
   ry="11.07"
   id="rect55" />
    <g
   id="g57">
      <path
   class="cls-17"
   d="m 854.07,237.47 a 7.95,7.95 0 0 1 -2.98,-3 c -0.72,-1.27 -1.08,-2.69 -1.08,-4.25 0,-1.56 0.36,-2.98 1.08,-4.25 a 7.9,7.9 0 0 1 2.98,-3 c 1.27,-0.73 2.67,-1.09 4.21,-1.09 1.19,0 2.28,0.22 3.27,0.67 0.99,0.45 1.85,1.09 2.58,1.94 l -1.36,1.32 c -0.61,-0.73 -1.27,-1.26 -2,-1.61 q -1.08,-0.51 -2.49,-0.51 c -1.16,0 -2.22,0.27 -3.19,0.81 -0.97,0.54 -1.74,1.31 -2.31,2.3 -0.57,0.99 -0.86,2.13 -0.86,3.42 0,1.29 0.29,2.43 0.86,3.42 0.57,0.99 1.34,1.75 2.31,2.3 0.97,0.54 2.03,0.81 3.19,0.81 1.93,0 3.58,-0.79 4.93,-2.39 l 1.38,1.34 c -0.73,0.88 -1.64,1.57 -2.73,2.08 -1.09,0.51 -2.29,0.77 -3.58,0.77 -1.55,0 -2.95,-0.36 -4.21,-1.09 z"
   id="path55" />
      <path
   class="cls-17"
   d="m 867.32,222.24 h 5.37 c 0.89,0 1.72,0.2 2.48,0.6 0.76,0.4 1.36,0.96 1.82,1.68 0.45,0.72 0.68,1.54 0.68,2.44 0,0.9 -0.23,1.72 -0.68,2.44 -0.45,0.72 -1.06,1.28 -1.82,1.68 -0.76,0.4 -1.58,0.6 -2.48,0.6 h -3.48 v 6.51 h -1.9 v -15.97 z m 5.42,7.65 c 0.59,0 1.12,-0.14 1.57,-0.42 0.45,-0.28 0.81,-0.65 1.06,-1.09 0.25,-0.45 0.38,-0.91 0.38,-1.41 0,-0.5 -0.13,-0.96 -0.38,-1.41 -0.25,-0.45 -0.61,-0.81 -1.06,-1.09 -0.45,-0.28 -0.98,-0.42 -1.57,-0.42 h -3.52 v 5.84 z"
   id="path56" />
      <path
   class="cls-17"
   d="m 882.59,237.78 a 5.4,5.4 0 0 1 -2.07,-2.21 c -0.49,-0.94 -0.74,-2.03 -0.74,-3.27 v -10.06 h 1.9 v 10.15 c 0,1.29 0.34,2.35 1.03,3.16 0.68,0.81 1.67,1.22 2.94,1.22 1.27,0 2.26,-0.41 2.95,-1.22 0.69,-0.81 1.04,-1.86 1.04,-3.16 v -10.15 h 1.9 v 10.06 c 0,1.23 -0.23,2.33 -0.7,3.28 -0.47,0.95 -1.15,1.69 -2.04,2.21 -0.89,0.52 -1.94,0.78 -3.14,0.78 -1.2,0 -2.16,-0.26 -3.06,-0.79 z"
   id="path57" />
    </g>
    <g
   id="g60">
      <path
   class="cls-17"
   d="m 853.33,332.51 a 8.1,8.1 0 0 1 -3.01,-3.01 c -0.74,-1.28 -1.12,-2.69 -1.12,-4.24 0,-1.55 0.37,-2.96 1.12,-4.24 a 8.1,8.1 0 0 1 3.01,-3.01 c 1.26,-0.73 2.65,-1.09 4.15,-1.09 1.17,0 2.28,0.21 3.31,0.62 1.03,0.42 1.88,1 2.55,1.76 l -1.34,1.36 c -0.52,-0.62 -1.17,-1.1 -1.96,-1.44 -0.79,-0.33 -1.64,-0.5 -2.54,-0.5 -1.12,0 -2.16,0.27 -3.14,0.81 -0.98,0.54 -1.77,1.31 -2.35,2.3 -0.59,0.99 -0.88,2.13 -0.88,3.42 0,1.29 0.29,2.43 0.88,3.42 0.59,0.99 1.37,1.75 2.35,2.3 0.98,0.54 2.03,0.81 3.14,0.81 1.11,0 1.97,-0.17 2.69,-0.5 0.72,-0.33 1.34,-0.78 1.86,-1.33 0.39,-0.42 0.7,-0.92 0.94,-1.5 0.24,-0.58 0.39,-1.24 0.45,-1.95 h -5.91 v -1.76 h 7.67 c 0.07,0.42 0.11,0.8 0.11,1.16 0,0.98 -0.16,1.94 -0.47,2.87 -0.31,0.93 -0.81,1.74 -1.49,2.44 -1.47,1.59 -3.43,2.39 -5.87,2.39 -1.5,0 -2.88,-0.36 -4.15,-1.09"
   id="path58" />
      <path
   class="cls-17"
   d="m 868.12,317.28 h 5.37 c 0.89,0 1.72,0.2 2.48,0.6 0.76,0.4 1.36,0.96 1.82,1.68 0.45,0.72 0.68,1.54 0.68,2.44 0,0.9 -0.23,1.72 -0.68,2.44 -0.45,0.72 -1.06,1.28 -1.82,1.68 -0.76,0.4 -1.58,0.6 -2.48,0.6 h -3.48 v 6.51 h -1.9 v -15.97 z m 5.42,7.65 c 0.59,0 1.12,-0.14 1.57,-0.42 0.45,-0.28 0.81,-0.65 1.06,-1.09 0.25,-0.45 0.38,-0.91 0.38,-1.4 0,-0.49 -0.13,-0.96 -0.38,-1.41 -0.25,-0.45 -0.61,-0.81 -1.06,-1.09 -0.45,-0.28 -0.98,-0.42 -1.57,-0.42 h -3.52 v 5.84 h 3.52 z"
   id="path59" />
      <path
   class="cls-17"
   d="m 883.39,332.82 a 5.4,5.4 0 0 1 -2.07,-2.21 c -0.49,-0.94 -0.74,-2.03 -0.74,-3.27 v -10.06 h 1.9 v 10.15 c 0,1.29 0.34,2.35 1.03,3.16 0.68,0.81 1.67,1.22 2.94,1.22 1.27,0 2.26,-0.41 2.95,-1.22 0.69,-0.81 1.04,-1.86 1.04,-3.16 v -10.15 h 1.9 v 10.06 c 0,1.23 -0.23,2.33 -0.7,3.28 -0.47,0.95 -1.15,1.69 -2.04,2.21 -0.89,0.52 -1.94,0.78 -3.14,0.78 -1.2,0 -2.16,-0.26 -3.06,-0.79 z"
   id="path60" />
    </g>
    <g
   id="g63">
      <path
   class="cls-17"
   d="m 856.14,422.03 -3.93,-5.6 h 2.14 l 2.92,4.21 2.83,-4.21 h 2.23 l -3.99,5.6 4.06,5.78 h -2.21 l -2.94,-4.37 -2.92,4.37 h -2.21 l 4.01,-5.78 z"
   id="path61" />
      <path
   class="cls-17"
   d="m 864.48,411.84 h 5.37 c 0.89,0 1.72,0.2 2.48,0.6 0.76,0.4 1.36,0.96 1.82,1.68 0.45,0.72 0.68,1.54 0.68,2.44 0,0.9 -0.23,1.72 -0.68,2.44 -0.45,0.72 -1.06,1.28 -1.82,1.68 -0.76,0.4 -1.58,0.6 -2.48,0.6 h -3.48 v 6.51 h -1.9 v -15.97 z m 5.42,7.65 c 0.59,0 1.12,-0.14 1.57,-0.42 0.45,-0.28 0.81,-0.65 1.06,-1.09 0.25,-0.45 0.38,-0.92 0.38,-1.41 0,-0.49 -0.13,-0.96 -0.38,-1.41 -0.25,-0.45 -0.61,-0.81 -1.06,-1.09 -0.45,-0.28 -0.98,-0.42 -1.57,-0.42 h -3.52 v 5.84 z"
   id="path62" />
      <path
   class="cls-17"
   d="m 879.76,427.37 a 5.4,5.4 0 0 1 -2.07,-2.21 c -0.49,-0.94 -0.74,-2.03 -0.74,-3.27 v -10.06 h 1.9 v 10.15 c 0,1.29 0.34,2.35 1.03,3.16 0.68,0.81 1.67,1.22 2.94,1.22 1.27,0 2.26,-0.41 2.95,-1.22 0.69,-0.81 1.04,-1.86 1.04,-3.16 v -10.15 h 1.9 v 10.06 c 0,1.23 -0.23,2.33 -0.7,3.28 -0.47,0.95 -1.15,1.69 -2.04,2.21 -0.89,0.52 -1.94,0.78 -3.14,0.78 -1.2,0 -2.16,-0.26 -3.06,-0.79 z"
   id="path63" />
    </g>
  </g>
  <g
   id="g2"
   transform="translate(-79.625,-149.369)"><rect
     class="cls-20"
     x="773.95099"
     y="197.59"
     width="264.03799"
     height="62.68"
     rx="15.054"
     ry="11.049"
     id="rect53-6" /><rect
     class="cls-20"
     x="773.84198"
     y="292.55099"
     width="142.535"
     height="62.896999"
     rx="8.1269999"
     ry="11.087"
     id="rect54-3" /><rect
     class="cls-20"
     x="773.94202"
     y="387.72198"
     width="254.84599"
     height="62.695"
     rx="14.53"
     ry="11.052"
     id="rect55-4" /><text
     xml:space="preserve"
     style="font-size:24px;font-family:'Google Sans';-inkscape-font-specification:'Google Sans';fill:#ffffff;stroke:#a4d1ec;stroke-width:2;stroke-dasharray:none;stroke-opacity:0"
     x="789.427"
     y="236.44901"
     id="text5-9"><tspan
       id="tspan5-4"
       x="789.427"
       y="236.44901"
       style="font-size:24px">1mo old model-server</tspan></text><text
     xml:space="preserve"
     style="font-size:24px;font-family:'Google Sans';-inkscape-font-specification:'Google Sans';fill:#ffffff;stroke:#a4d1ec;stroke-width:2;stroke-dasharray:none;stroke-opacity:0"
     x="791.32501"
     y="428.41699"
     id="text6"><tspan
       id="tspan6"
       x="791.32501"
       y="428.41699"
       style="font-size:24px">2yr old iOS / Android</tspan></text><text
     xml:space="preserve"
     style="font-size:24px;font-family:'Google Sans';-inkscape-font-specification:'Google Sans';fill:#ffffff;stroke:#a4d1ec;stroke-width:2;stroke-dasharray:none;stroke-opacity:0"
     x="790.22101"
     y="332.522"
     id="text7"><tspan
       id="tspan7"
       x="790.22101"
       y="332.522"
       style="font-size:24px">1yr old OS</tspan></text></g>
  <rect
   class="cls-20"
   x="415.755"
   y="149.381"
   width="161.24001"
   height="52.150002"
   rx="11.07"
   ry="11.07"
   id="rect63" />
  <rect
   x="379.91901"
   y="38.325001"
   width="232.90199"
   height="262.70499"
   rx="11.073"
   ry="8.7449999"
   id="rect64"
   style="fill:none;stroke:#ffffff;stroke-width:0.65px;stroke-miterlimit:10" />
  <g
   id="g73"
   transform="translate(-79.625,-125.369)">
    <path
   class="cls-17"
   id="polygon64"
   d="m 544.02,213.11 -11.74,20.35 h -25.92 l -11.75,-20.35 11.75,-20.34 h 25.92 z" />
    <path
   id="polygon65"
   style="fill:#458ae5;stroke-width:0"
   d="m 530.87,219.7 h -3.1 l -3.8,-6.59 6.9,-11.95 1.55,2.68 -5.35,9.27 z" />
    <path
   class="cls-15"
   id="polygon66"
   d="m 507.77,206.53 h 3.09 l 3.81,6.58 -6.9,11.96 -1.55,-2.68 5.35,-9.28 z" />
    <path
   id="polygon67"
   style="fill:#1a344c;stroke-width:0"
   d="m 530.87,225.07 1.55,-2.68 h -6.2 l -5.35,-9.28 6.9,-11.95 h -3.1 l -2.25,3.9 -2.25,-3.9 h -3.1 l 3.8,6.58 -1.55,2.69 -5.35,-9.27 h -6.2 l -1.55,2.68 h 6.2 l 5.35,9.27 -6.9,11.96 h 3.1 l 2.25,-3.9 2.25,3.9 h 3.1 l -3.8,-6.59 1.55,-2.68 5.35,9.27 z" />
    <g
   id="g70">
      <path
   class="cls-17"
   d="m 556.38,213.11 c 0,-5.25 3.32,-8.6 8.17,-8.6 4.85,0 8.14,3.35 8.14,8.6 0,5.25 -3.3,8.6 -8.14,8.6 -4.84,0 -8.17,-3.4 -8.17,-8.6 m 13.08,0 c 0,-3.56 -1.9,-5.65 -4.92,-5.65 -3.02,0 -4.92,2.09 -4.92,5.65 0,3.56 1.9,5.67 4.92,5.67 3.02,0 4.92,-2.18 4.92,-5.67"
   id="path67" />
      <path
   class="cls-17"
   d="m 587.03,215.13 c 0,4.27 -2.16,6.58 -5.27,6.58 -1.42,0 -2.54,-0.5 -3.3,-1.33 v 5.72 h -3.04 v -13.8 l -1.02,-2.07 2.94,-1.5 0.83,1.73 c 0.85,-1.02 2.16,-1.85 3.92,-1.85 3.06,0 4.94,2.49 4.94,6.51 z m -3.13,-0.02 c 0,-2.37 -1.07,-3.78 -3.13,-3.78 -0.83,0 -1.64,0.21 -2.3,0.59 v 6.39 a 4,4 0 0 0 2.23,0.66 c 1.99,0 3.21,-1.38 3.21,-3.87 z"
   id="path68" />
      <path
   class="cls-17"
   d="m 599.97,215.63 h -8.12 c 0.26,1.92 1.76,3.11 4.23,3.11 1.35,0 2.83,-0.29 3.8,-0.81 l -0.93,3.04 c -0.85,0.47 -2.14,0.74 -3.68,0.74 -4.13,0 -6.58,-2.59 -6.58,-6.58 0,-3.99 2.4,-6.51 6.29,-6.51 3.3,0 5.3,1.88 5.3,4.92 0,0.66 -0.09,1.5 -0.31,2.09 m -8.05,-1.9 h 5.44 c -0.1,-1.83 -0.93,-2.61 -2.37,-2.61 -1.61,0 -2.71,0.97 -3.06,2.61 z"
   id="path69" />
      <path
   class="cls-17"
   d="m 613.46,212.66 v 8.74 h -3.04 v -7.53 c 0,-1.64 -0.66,-2.49 -2.23,-2.49 -0.9,0 -1.73,0.31 -2.42,0.62 v 9.4 h -3.04 v -9.12 l -1.02,-2.18 2.94,-1.4 0.95,1.95 c 1.38,-1.23 2.8,-1.99 4.25,-1.99 2.33,0 3.61,1.38 3.61,4.01 z"
   id="path70" />
    </g>
    <path
   class="cls-15"
   d="m 629.35,204.83 -5.06,8.52 5.08,8.05 h -3.61 l -2.92,-4.7 -0.59,-1.38 h -0.14 l -0.55,1.35 -2.75,4.73 h -3.51 l 5.2,-8.38 -5.13,-8.19 h 3.56 l 3.06,4.92 0.5,1.26 h 0.14 l 0.55,-1.31 2.73,-4.87 z"
   id="path71" />
    <path
   class="cls-15"
   d="m 634.64,218.72 h 5.84 v 2.68 h -8.93 v -16.57 h 3.09 z"
   id="path72" />
    <path
   class="cls-15"
   d="m 652.67,221.4 -1.33,-4.23 h -5.72 l -1.35,4.23 h -3.13 l 5.41,-16.57 h 3.92 l 5.39,16.57 h -3.18 z m -6.24,-6.77 h 4.11 l -1.71,-5.41 -0.26,-1.28 h -0.17 l -0.26,1.28 z"
   id="path73" />
  </g>
  <g
   id="g82"
   transform="translate(-79.625,-119.369)">
    <path
   class="cls-17"
   d="m 529.75,303.12 c -0.7,-0.31 -1.32,-0.77 -1.86,-1.37 -0.54,-0.6 -0.93,-1.33 -1.16,-2.19 l 1.68,-0.69 c 0.24,0.89 0.67,1.61 1.31,2.18 0.64,0.57 1.38,0.85 2.24,0.85 0.86,0 1.58,-0.23 2.18,-0.7 0.59,-0.46 0.89,-1.1 0.89,-1.9 0,-0.69 -0.25,-1.26 -0.76,-1.71 -0.51,-0.45 -1.33,-0.87 -2.48,-1.26 L 530.86,296 c -1.05,-0.37 -1.91,-0.86 -2.57,-1.47 -0.66,-0.61 -1,-1.45 -1,-2.53 0,-0.71 0.19,-1.36 0.58,-1.96 q 0.585,-0.9 1.62,-1.44 c 0.69,-0.36 1.47,-0.54 2.33,-0.54 0.86,0 1.61,0.16 2.24,0.48 0.64,0.32 1.15,0.71 1.53,1.16 0.38,0.46 0.65,0.91 0.8,1.35 l -1.64,0.71 c -0.15,-0.51 -0.47,-0.98 -0.97,-1.39 -0.49,-0.42 -1.14,-0.62 -1.94,-0.62 -0.76,0 -1.41,0.21 -1.95,0.64 q -0.81,0.645 -0.81,1.62 c 0,0.58 0.23,1.06 0.69,1.42 0.46,0.37 1.15,0.71 2.08,1.03 l 0.98,0.33 c 1.26,0.46 2.24,1.03 2.95,1.71 0.71,0.68 1.06,1.62 1.06,2.79 0,0.96 -0.25,1.76 -0.74,2.41 a 4.3,4.3 0 0 1 -1.86,1.43 c -0.75,0.3 -1.52,0.46 -2.3,0.46 a 5.3,5.3 0 0 1 -2.17,-0.47 z"
   id="path74" />
    <path
   class="cls-17"
   d="m 541.44,303.38 a 2.7,2.7 0 0 1 -0.92,-0.57 c -0.55,-0.54 -0.83,-1.27 -0.83,-2.22 v -6.32 h -1.85 v -1.6 h 1.85 v -2.99 h 1.76 v 2.99 h 2.6 v 1.6 h -2.6 v 5.9 q 0,0.885 0.33,1.32 c 0.26,0.31 0.64,0.47 1.14,0.47 0.43,0 0.82,-0.12 1.16,-0.35 v 1.72 q -0.315,0.15 -0.63,0.21 c -0.21,0.04 -0.49,0.06 -0.82,0.06 -0.43,0 -0.83,-0.07 -1.19,-0.21 z"
   id="path75" />
    <path
   class="cls-17"
   d="m 547.27,303.13 q -0.915,-0.45 -1.41,-1.26 c -0.33,-0.53 -0.5,-1.14 -0.5,-1.82 0,-1.12 0.42,-2 1.27,-2.63 0.84,-0.63 1.91,-0.95 3.2,-0.95 q 0.96,0 1.77,0.21 c 0.54,0.14 0.97,0.3 1.26,0.48 v -0.64 c 0,-0.79 -0.28,-1.42 -0.83,-1.9 q -0.825,-0.72 -2.1,-0.72 c -0.58,0 -1.12,0.13 -1.63,0.38 -0.51,0.26 -0.9,0.61 -1.19,1.07 l -1.33,-1 c 0.42,-0.64 0.99,-1.13 1.72,-1.5 q 1.095,-0.54 2.43,-0.54 c 1.44,0 2.57,0.38 3.38,1.13 0.81,0.75 1.23,1.78 1.23,3.08 v 6.71 h -1.68 v -1.52 h -0.08 c -0.3,0.51 -0.76,0.95 -1.37,1.31 -0.61,0.36 -1.29,0.54 -2.06,0.54 -0.77,0 -1.47,-0.15 -2.08,-0.46 z m 3.9,-1.56 c 0.51,-0.3 0.92,-0.71 1.22,-1.22 0.3,-0.51 0.46,-1.07 0.46,-1.68 q -0.495,-0.33 -1.23,-0.54 c -0.49,-0.14 -1,-0.21 -1.54,-0.21 q -1.455,0 -2.19,0.6 c -0.49,0.4 -0.74,0.92 -0.74,1.56 q 0,0.87 0.66,1.41 0.66,0.54 1.68,0.54 c 0.6,0 1.15,-0.15 1.66,-0.46 z"
   id="path76" />
    <path
   class="cls-17"
   d="m 560.19,303.04 c -0.64,-0.37 -1.12,-0.81 -1.44,-1.34 h -0.08 v 1.56 h -1.68 v -14.87 h 1.76 v 4.38 l -0.08,1.47 h 0.08 c 0.32,-0.54 0.8,-0.99 1.44,-1.36 0.64,-0.37 1.37,-0.55 2.17,-0.55 0.96,0 1.82,0.24 2.58,0.73 0.77,0.49 1.37,1.16 1.82,2.01 0.45,0.85 0.66,1.82 0.66,2.89 0,1.07 -0.22,2.04 -0.66,2.9 -0.44,0.85 -1.05,1.52 -1.82,2 -0.77,0.48 -1.63,0.73 -2.58,0.73 -0.8,0 -1.53,-0.18 -2.17,-0.55 m 3.71,-1.55 q 0.81,-0.495 1.29,-1.41 c 0.32,-0.61 0.48,-1.31 0.48,-2.12 0,-0.81 -0.16,-1.51 -0.48,-2.12 q -0.48,-0.915 -1.29,-1.41 c -0.54,-0.33 -1.11,-0.5 -1.72,-0.5 -0.61,0 -1.2,0.17 -1.73,0.5 q -0.795,0.495 -1.29,1.41 c -0.33,0.61 -0.49,1.32 -0.49,2.12 0,0.8 0.16,1.51 0.49,2.12 0.33,0.61 0.75,1.08 1.29,1.41 a 3.23,3.23 0 0 0 3.45,0"
   id="path77" />
    <path
   class="cls-17"
   d="m 569.38,288.39 h 1.76 v 14.87 h -1.76 z"
   id="path78" />
    <path
   class="cls-17"
   d="m 575.65,302.86 c -0.8,-0.48 -1.43,-1.15 -1.88,-2 -0.45,-0.85 -0.67,-1.81 -0.67,-2.88 0,-1.01 0.21,-1.95 0.63,-2.81 0.42,-0.86 1.02,-1.55 1.81,-2.07 0.78,-0.51 1.68,-0.77 2.69,-0.77 1.01,0 1.94,0.23 2.7,0.7 0.76,0.46 1.35,1.1 1.75,1.92 0.4,0.82 0.61,1.75 0.61,2.8 0,0.17 -0.01,0.35 -0.04,0.54 h -8.39 c 0.04,0.8 0.24,1.48 0.58,2.03 0.35,0.55 0.79,0.97 1.32,1.25 0.53,0.28 1.09,0.42 1.67,0.42 1.38,0 2.43,-0.64 3.14,-1.91 l 1.49,0.73 c -0.44,0.84 -1.06,1.52 -1.85,2.02 -0.79,0.51 -1.74,0.76 -2.84,0.76 -1.01,0 -1.92,-0.24 -2.72,-0.73 m 5.77,-6.02 c -0.03,-0.44 -0.15,-0.89 -0.37,-1.33 -0.22,-0.44 -0.57,-0.82 -1.04,-1.12 -0.47,-0.3 -1.07,-0.46 -1.79,-0.46 -0.83,0 -1.54,0.27 -2.12,0.8 -0.58,0.53 -0.96,1.24 -1.14,2.11 z"
   id="path79" />
    <path
   class="cls-17"
   d="m 585.7,288.39 h 1.76 v 6.42 h 7.64 v -6.42 h 1.76 v 14.87 h -1.76 v -6.77 h -7.64 v 6.77 h -1.76 z"
   id="path80" />
    <path
   class="cls-17"
   d="m 600.19,288.39 h 1.76 v 13.18 h 6.5 v 1.68 h -8.26 v -14.87 z"
   id="path81" />
    <path
   class="cls-17"
   d="m 613.46,302.55 a 7.4,7.4 0 0 1 -2.74,-2.82 c -0.66,-1.19 -1,-2.49 -1,-3.9 0,-1.41 0.33,-2.71 1,-3.9 a 7.4,7.4 0 0 1 2.74,-2.82 c 1.16,-0.69 2.46,-1.04 3.88,-1.04 1.42,0 2.72,0.35 3.88,1.04 1.16,0.69 2.08,1.63 2.74,2.82 0.66,1.19 1,2.49 1,3.9 0,1.41 -0.33,2.71 -1,3.9 a 7.5,7.5 0 0 1 -2.74,2.82 c -1.16,0.69 -2.46,1.04 -3.88,1.04 -1.42,0 -2.72,-0.35 -3.88,-1.04 m 6.82,-1.42 c 0.89,-0.52 1.6,-1.24 2.12,-2.16 q 0.78,-1.38 0.78,-3.15 c 0,-1.18 -0.26,-2.22 -0.78,-3.15 a 5.64,5.64 0 0 0 -2.12,-2.16 q -1.335,-0.78 -2.94,-0.78 -1.605,0 -2.94,0.78 c -0.89,0.52 -1.6,1.24 -2.12,2.16 q -0.78,1.38 -0.78,3.15 c 0,1.18 0.26,2.22 0.78,3.15 0.52,0.93 1.23,1.64 2.12,2.16 q 1.335,0.78 2.94,0.78 c 1.07,0 2.04,-0.26 2.94,-0.78"
   id="path82" />
  </g>
  <path
   class="cls-21"
   id="line89"
   style="stroke:#a4d1ec;stroke-width:2;stroke-dasharray:none;stroke-opacity:1"
   d="m 298.485,174.631 h 81.47" />
  <path
   class="cls-21"
   d="m 297.889,79.552 h 26.958 c 5.562,0 10.061,4.96 10.061,11.071 v 167.896 c 0,6.12 -4.508,11.07 -10.061,11.07 h -26.958"
   id="path90"
   style="stroke:#a4d1ec;stroke-width:2;stroke-dasharray:none;stroke-opacity:1" />
  <path
   class="cls-21"
   id="line90"
   style="stroke:#a4d1ec;stroke-width:2;stroke-dasharray:none;stroke-opacity:1"
   d="m 694.265,174.521 h -81.47" />
  <path
   class="cls-21"
   d="m 694.265,269.591 h -29.66 c -6.12,0 -11.07,-4.96 -11.07,-11.07 V 90.641 c 0,-6.12 4.96,-11.07 11.07,-11.07 h 29.66"
   id="path91"
   style="stroke:#a4d1ec;stroke-width:2;stroke-dasharray:none;stroke-opacity:1" />
  <g
   id="g44-4-4-3-7"
   transform="translate(-82.645,-149.182)">
    <g
   id="g40-6-2-1-9"
   clip-path="url(#clippath)">
      <path
   d="m 215.71,216.94 h 24.97 v 23.93 h -24.97 z"
   id="path40-0-9-1-5"
   style="fill:url(#linearGradient4);stroke-width:0" />
    </g>
    <g
   id="g41-3-2-4-3"
   clip-path="url(#clippath-1)">
      <path
   d="m 215.57,216.94 h 24.97 v 23.93 h -24.97 z"
   id="path41-2-8-9-3"
   style="fill:url(#linear-gradient-2-7-4-4-9);stroke-width:0" />
    </g>
    <g
   id="g43-2-9-5-3">
      <path
   class="cls-17"
   d="m 256.33,224.41 h -4.52 v 12.53 h -2.53 v -12.53 h -4.52 v -2.04 h 11.58 v 2.04 z"
   id="path42-1-2-9-8"
   style="fill:#ffffff;stroke-width:0" />
      <path
   class="cls-17"
   d="m 259.36,237.12 c -1.54,0 -2.8,-0.5 -3.75,-1.45 -0.95,-0.95 -1.45,-2.26 -1.45,-3.89 v -0.32 c 0,-1 0.18,-1.99 0.63,-2.9 0.41,-0.81 1,-1.49 1.76,-1.99 0.77,-0.5 1.63,-0.72 2.53,-0.72 1.49,0 2.62,0.45 3.44,1.4 0.82,0.95 1.22,2.26 1.22,3.98 v 1 h -7.1 c 0.05,0.81 0.36,1.54 0.9,2.13 0.54,0.54 1.22,0.81 1.99,0.77 1.09,0.05 2.08,-0.5 2.71,-1.36 l 1.31,1.27 c -0.45,0.63 -1.04,1.18 -1.72,1.49 -0.81,0.45 -1.63,0.63 -2.49,0.59 z m -0.27,-9.27 c -0.63,-0.05 -1.22,0.23 -1.63,0.68 -0.45,0.54 -0.72,1.22 -0.77,1.95 h 4.66 v -0.18 c -0.05,-0.81 -0.27,-1.45 -0.63,-1.85 -0.45,-0.36 -1.04,-0.63 -1.63,-0.59 z m 8.78,-1.76 0.09,1.27 c 0.77,-0.95 1.95,-1.49 3.17,-1.45 2.26,0 3.39,1.31 3.44,3.89 v 7.15 h -2.44 v -7.01 c 0,-0.68 -0.14,-1.18 -0.45,-1.54 -0.32,-0.32 -0.77,-0.5 -1.45,-0.5 -0.95,-0.05 -1.81,0.5 -2.22,1.31 v 7.69 h -2.44 v -10.86 l 2.31,0.05 z m 14.57,7.92 c 0,-0.41 -0.18,-0.77 -0.54,-1 -0.54,-0.32 -1.18,-0.5 -1.76,-0.59 -0.72,-0.14 -1.4,-0.36 -2.08,-0.68 -1.22,-0.59 -1.81,-1.45 -1.81,-2.53 0,-0.9 0.45,-1.81 1.18,-2.35 0.77,-0.63 1.81,-0.95 2.99,-0.95 1.31,0 2.35,0.32 3.12,0.95 0.77,0.59 1.22,1.54 1.18,2.49 h -2.44 c 0,-0.45 -0.18,-0.86 -0.54,-1.18 -0.41,-0.32 -0.86,-0.5 -1.4,-0.45 -0.45,0 -0.9,0.09 -1.31,0.36 -0.32,0.23 -0.5,0.59 -0.5,1 0,0.36 0.18,0.68 0.45,0.86 0.32,0.23 0.95,0.41 1.9,0.63 0.77,0.14 1.54,0.41 2.26,0.77 0.5,0.23 0.9,0.59 1.22,1.04 0.27,0.45 0.41,0.95 0.41,1.49 0,0.95 -0.45,1.81 -1.22,2.35 -0.81,0.59 -1.85,0.9 -3.17,0.9 -0.81,0 -1.63,-0.14 -2.35,-0.5 -0.63,-0.27 -1.22,-0.72 -1.63,-1.31 -0.36,-0.54 -0.59,-1.18 -0.59,-1.81 h 2.35 c 0,0.5 0.23,1 0.63,1.31 0.45,0.32 1.04,0.5 1.58,0.45 0.63,0 1.13,-0.14 1.45,-0.36 0.45,-0.18 0.63,-0.54 0.63,-0.9 z m 3.66,-2.58 c 0,-1 0.18,-1.99 0.63,-2.85 0.41,-0.81 1,-1.49 1.76,-1.95 0.81,-0.45 1.72,-0.72 2.62,-0.68 1.45,0 2.67,0.45 3.57,1.4 0.9,0.95 1.4,2.17 1.49,3.75 v 0.59 c 0,1 -0.18,1.95 -0.63,2.85 -0.36,0.81 -1,1.49 -1.76,1.95 -0.81,0.45 -1.72,0.72 -2.67,0.68 -1.54,0 -2.76,-0.5 -3.66,-1.54 -0.9,-1 -1.36,-2.35 -1.4,-4.07 l 0.05,-0.14 z m 2.4,0.23 c 0,1.13 0.23,1.99 0.68,2.62 a 2.427,2.427 0 0 0 3.84,0 c 0.45,-0.63 0.68,-1.58 0.68,-2.8 0,-1.09 -0.23,-1.95 -0.72,-2.62 -0.77,-1.04 -2.26,-1.27 -3.35,-0.5 -0.18,0.14 -0.36,0.32 -0.5,0.45 -0.36,0.63 -0.63,1.58 -0.63,2.85 m 14.97,-3.3 c -0.32,-0.05 -0.68,-0.09 -1,-0.09 -1.13,0 -1.85,0.41 -2.26,1.27 v 7.42 h -2.44 V 226.1 h 2.31 l 0.05,1.22 c 0.59,-0.95 1.4,-1.4 2.44,-1.4 0.27,0 0.59,0.05 0.86,0.14 l 0.05,2.31 z m 10.18,2.4 h -5.88 v 6.2 h -2.53 v -14.57 h 9.27 v 2.04 h -6.74 v 4.34 h 5.88 z m 4.84,6.2 h -2.44 v -14.61 h 2.44 z m 1.76,-5.52 c 0,-1 0.18,-1.99 0.63,-2.85 0.41,-0.81 1,-1.49 1.76,-1.95 0.81,-0.45 1.72,-0.72 2.62,-0.68 1.45,0 2.67,0.45 3.57,1.4 0.9,0.95 1.4,2.17 1.49,3.75 v 0.59 c 0,1 -0.18,1.95 -0.59,2.85 -0.36,0.81 -1,1.49 -1.76,1.95 -0.81,0.45 -1.72,0.72 -2.67,0.68 -1.54,0 -2.76,-0.5 -3.66,-1.54 -0.9,-1 -1.4,-2.35 -1.4,-4.07 v -0.14 z m 2.44,0.23 c 0,1.13 0.23,1.99 0.68,2.62 0.45,0.63 1.18,1 1.95,0.95 a 2.1,2.1 0 0 0 1.9,-0.95 c 0.45,-0.63 0.68,-1.58 0.68,-2.8 0,-1.09 -0.23,-1.95 -0.72,-2.62 -0.77,-1.04 -2.26,-1.27 -3.35,-0.5 -0.18,0.14 -0.36,0.32 -0.5,0.45 -0.41,0.63 -0.63,1.58 -0.63,2.85 z m 18.64,1.95 1.72,-7.46 h 2.35 l -2.94,10.86 h -1.99 l -2.31,-7.46 -2.31,7.46 h -1.99 l -2.99,-10.86 h 2.4 l 1.76,7.42 2.22,-7.42 h 1.85 l 2.22,7.46 z"
   id="path43-4-5-0-5"
   style="fill:#ffffff;stroke-width:0" />
    </g>
  </g>
  <text
   xml:space="preserve"
   style="font-size:53.3333px;fill:none"
   x="479.28699"
   y="247.08598"
   id="text96-6-1-1"><tspan
     id="tspan96-1-9-5"
     x="479.28699"
     y="247.08598"
     style="font-style:normal;font-variant:normal;font-weight:400;font-stretch:normal;font-size:53.3333px;font-family:'Google Sans';-inkscape-font-specification:'Google Sans';fill:#ffffff">...</tspan></text>
</svg>
